<svg xmlns="http://www.w3.org/2000/svg" xmlns:svg="http://www.w3.org/2000/svg" id="svg4699" width="210mm" height="297mm" version="1.1" viewBox="0 0 744.094 1052.362"><metadata id="metadata4704"/><g id="layer1"><path id="path5251" d="M574.13046 389.27307L569.346644306 437.624018745L555.352543177 483.676032824L532.68417554 526.135048071L501.877560322 563.707000322L464.305608071 594.51361554L421.846592824 617.181983177L375.794578745 631.176084306L327.44363 635.9599L277.727630255 630.948099514L231.42198468 616.574024619L189.518679992 593.829662053L153.00970291 563.706998555L122.887040151 527.198020862L100.142678435 485.294715713L85.7686044784 438.989069846L80.756805 389.27307L85.7686044784 339.557070154L100.142678435 293.251424287L122.887040151 251.348119138L153.00970291 214.839141445L189.518679992 184.716477947L231.42198468 161.972115381L277.727630255 147.598040486L327.44363 142.58624L375.794578745 147.370055694L421.846592824 161.364156823L464.305608071 184.03252446L501.877560322 214.839139678L532.68417554 252.411091929L555.352543177 294.870107176L569.346644306 340.922121255L574.13046 389.27307L574.13046 389.27307" style="fill:none;fill-opacity:1;stroke:#000;stroke-opacity:1"/><path style="font-style:normal;font-variant:normal;font-weight:400;font-stretch:condensed;font-size:187.5px;line-height:125%;font-family:Impact;-inkscape-font-specification:'Impact Condensed';letter-spacing:0;word-spacing:0;fill:#000;fill-opacity:1;stroke:none;stroke-width:1px;stroke-linecap:butt;stroke-linejoin:miter;stroke-opacity:1" id="path5262" d="M209.61527 315.16114L209.61527 463.38501L171.07157 463.38501L171.07157 401.12915L159.53592 401.12915L159.53592 463.38501L120.99222 463.38501L120.99222 315.16114L159.53592 315.16114L159.53592 368.17017L171.07157 368.17017L171.07157 315.16114L209.61527 315.16114L209.61527 315.16114"/><path style="font-style:normal;font-variant:normal;font-weight:400;font-stretch:condensed;font-size:187.5px;line-height:125%;font-family:Impact;-inkscape-font-specification:'Impact Condensed';letter-spacing:0;word-spacing:0;fill:#000;fill-opacity:1;stroke:none;stroke-width:1px;stroke-linecap:butt;stroke-linejoin:miter;stroke-opacity:1" id="path5264" d="M224.99613 315.16114L289.26615 315.16114L289.26615 344.82422L263.53983 344.82422L263.53983 372.93091L287.6182 372.93091L287.6182 401.12915L263.53983 401.12915L263.53983 433.72193L291.82962 433.72193L291.82962 463.38501L224.99613 463.38501L224.99613 315.16114L224.99613 315.16114"/><path style="font-style:normal;font-variant:normal;font-weight:400;font-stretch:condensed;font-size:187.5px;line-height:125%;font-family:Impact;-inkscape-font-specification:'Impact Condensed';letter-spacing:0;word-spacing:0;fill:#000;fill-opacity:1;stroke:none;stroke-width:1px;stroke-linecap:butt;stroke-linejoin:miter;stroke-opacity:1" id="path5266" d="M341.54276 315.16114L341.54276 433.72193L364.98026 433.72193L364.98026 463.38501L302.99906 463.38501L302.99906 315.16114L341.54276 315.16114L341.54276 315.16114"/><path style="font-style:normal;font-variant:normal;font-weight:400;font-stretch:condensed;font-size:187.5px;line-height:125%;font-family:Impact;-inkscape-font-specification:'Impact Condensed';letter-spacing:0;word-spacing:0;fill:#000;fill-opacity:1;stroke:none;stroke-width:1px;stroke-linecap:butt;stroke-linejoin:miter;stroke-opacity:1" id="path5268" d="M412.95389 315.16114L412.95389 433.72193L436.39139 433.72193L436.39139 463.38501L374.41019 463.38501L374.41019 315.16114L412.95389 315.16114L412.95389 315.16114"/><path style="font-style:normal;font-variant:normal;font-weight:400;font-stretch:condensed;font-size:187.5px;line-height:125%;font-family:Impact;-inkscape-font-specification:'Impact Condensed';letter-spacing:0;word-spacing:0;fill:#000;fill-opacity:1;stroke:none;stroke-width:1px;stroke-linecap:butt;stroke-linejoin:miter;stroke-opacity:1" id="path5270" d="M533.89505 401.95313L532.79642 433.63037L526.20462 450.56763L511.28153 462.37793L489.30887 466.49781L467.88553 462.65259L452.68778 450.93384L445.82132 433.99659L444.72269 401.95313L444.72269 376.59302L445.72977 345.00733L452.32157 327.97852L467.33622 316.16822L489.30887 312.04834L510.64066 315.98511L525.92997 327.61231L532.79642 344.54956L533.89505 376.59302L533.89505 401.95313L533.89505 401.95313M495.35135 353.24707L494.16117 340.06348L489.49198 337.13379L484.82279 339.51416L483.26639 353.24707L483.26639 422.46094L484.27347 438.39112L489.21732 441.41236L494.25272 437.93335L495.35135 421.36231L495.35135 353.24707L495.35135 353.24707"/></g></svg>